<svg viewBox="0 0 856.5 400" xmlns="http://www.w3.org/2000/svg"><g><g><g><g><g><line x1="41.171875" y1="376.921875" x2="36.171875" y2="376.921875" style="visibility: inherit;" fill="rgb(0, 0, 0)" stroke="rgb(204, 204, 204)" stroke-width="1px"></line><line x1="41.171875" y1="345.51171875" x2="36.171875" y2="345.51171875" style="visibility: inherit;" fill="rgb(0, 0, 0)" stroke="rgb(204, 204, 204)" stroke-width="1px"></line><line x1="41.171875" y1="314.1015625" x2="36.171875" y2="314.1015625" style="visibility: inherit;" fill="rgb(0, 0, 0)" stroke="rgb(204, 204, 204)" stroke-width="1px"></line><line x1="41.171875" y1="282.69140625" x2="36.171875" y2="282.69140625" style="visibility: inherit;" fill="rgb(0, 0, 0)" stroke="rgb(204, 204, 204)" stroke-width="1px"></line><line x1="41.171875" y1="251.28125000000003" x2="36.171875" y2="251.28125000000003" style="visibility: inherit;" fill="rgb(0, 0, 0)" stroke="rgb(204, 204, 204)" stroke-width="1px"></line><line x1="41.171875" y1="219.87109374999997" x2="36.171875" y2="219.87109374999997" style="visibility: inherit;" fill="rgb(0, 0, 0)" stroke="rgb(204, 204, 204)" stroke-width="1px"></line><line x1="41.171875" y1="188.46093749999997" x2="36.171875" y2="188.46093749999997" style="visibility: inherit;" fill="rgb(0, 0, 0)" stroke="rgb(204, 204, 204)" stroke-width="1px"></line><line x1="41.171875" y1="157.05078125" x2="36.171875" y2="157.05078125" style="visibility: inherit;" fill="rgb(0, 0, 0)" stroke="rgb(204, 204, 204)" stroke-width="1px"></line><line x1="41.171875" y1="125.64062499999997" x2="36.171875" y2="125.64062499999997" style="visibility: inherit;" fill="rgb(0, 0, 0)" stroke="rgb(204, 204, 204)" stroke-width="1px"></line><line x1="41.171875" y1="94.23046875" x2="36.171875" y2="94.23046875" style="visibility: inherit;" fill="rgb(0, 0, 0)" stroke="rgb(204, 204, 204)" stroke-width="1px"></line><line x1="41.171875" y1="62.820312499999986" x2="36.171875" y2="62.820312499999986" style="visibility: inherit;" fill="rgb(0, 0, 0)" stroke="rgb(204, 204, 204)" stroke-width="1px"></line><line x1="41.171875" y1="31.410156250000014" x2="36.171875" y2="31.410156250000014" style="visibility: inherit;" fill="rgb(0, 0, 0)" stroke="rgb(204, 204, 204)" stroke-width="1px"></line><line x1="41.171875" y1="0" x2="36.171875" y2="0" style="visibility: inherit;" fill="rgb(0, 0, 0)" stroke="rgb(204, 204, 204)" stroke-width="1px"></line></g><g transform="translate(31.171875, 0)"><text x="0" y="376.921875" dx="0em" dy="0.3em" style="text-anchor: end; visibility: hidden; font-family: Roboto, sans-serif; font-size: 12px; font-weight: 200;" fill="rgb(33, 33, 33)" stroke="none" stroke-width="1px">0.3</text><text x="0" y="345.51171875" dx="0em" dy="0.3em" style="text-anchor: end; visibility: inherit; font-family: Roboto, sans-serif; font-size: 12px; font-weight: 200;" fill="rgb(33, 33, 33)" stroke="none" stroke-width="1px">0.4</text><text x="0" y="314.1015625" dx="0em" dy="0.3em" style="text-anchor: end; visibility: inherit; font-family: Roboto, sans-serif; font-size: 12px; font-weight: 200;" fill="rgb(33, 33, 33)" stroke="none" stroke-width="1px">0.5</text><text x="0" y="282.69140625" dx="0em" dy="0.3em" style="text-anchor: end; visibility: inherit; font-family: Roboto, sans-serif; font-size: 12px; font-weight: 200;" fill="rgb(33, 33, 33)" stroke="none" stroke-width="1px">0.6</text><text x="0" y="251.28125000000003" dx="0em" dy="0.3em" style="text-anchor: end; visibility: inherit; font-family: Roboto, sans-serif; font-size: 12px; font-weight: 200;" fill="rgb(33, 33, 33)" stroke="none" stroke-width="1px">0.7</text><text x="0" y="219.87109374999997" dx="0em" dy="0.3em" style="text-anchor: end; visibility: inherit; font-family: Roboto, sans-serif; font-size: 12px; font-weight: 200;" fill="rgb(33, 33, 33)" stroke="none" stroke-width="1px">0.8</text><text x="0" y="188.46093749999997" dx="0em" dy="0.3em" style="text-anchor: end; visibility: inherit; font-family: Roboto, sans-serif; font-size: 12px; font-weight: 200;" fill="rgb(33, 33, 33)" stroke="none" stroke-width="1px">0.9</text><text x="0" y="157.05078125" dx="0em" dy="0.3em" style="text-anchor: end; visibility: inherit; font-family: Roboto, sans-serif; font-size: 12px; font-weight: 200;" fill="rgb(33, 33, 33)" stroke="none" stroke-width="1px">1</text><text x="0" y="125.64062499999997" dx="0em" dy="0.3em" style="text-anchor: end; visibility: inherit; font-family: Roboto, sans-serif; font-size: 12px; font-weight: 200;" fill="rgb(33, 33, 33)" stroke="none" stroke-width="1px">1.1</text><text x="0" y="94.23046875" dx="0em" dy="0.3em" style="text-anchor: end; visibility: inherit; font-family: Roboto, sans-serif; font-size: 12px; font-weight: 200;" fill="rgb(33, 33, 33)" stroke="none" stroke-width="1px">1.2</text><text x="0" y="62.820312499999986" dx="0em" dy="0.3em" style="text-anchor: end; visibility: inherit; font-family: Roboto, sans-serif; font-size: 12px; font-weight: 200;" fill="rgb(33, 33, 33)" stroke="none" stroke-width="1px">1.3</text><text x="0" y="31.410156250000014" dx="0em" dy="0.3em" style="text-anchor: end; visibility: inherit; font-family: Roboto, sans-serif; font-size: 12px; font-weight: 200;" fill="rgb(33, 33, 33)" stroke="none" stroke-width="1px">1.4</text><text x="0" y="0" dx="0em" dy="0.3em" style="text-anchor: end; visibility: hidden; font-family: Roboto, sans-serif; font-size: 12px; font-weight: 200;" fill="rgb(33, 33, 33)" stroke="none" stroke-width="1px">1.5</text></g><line x1="41.171875" y1="0" x2="41.171875" y2="376.921875" fill="rgb(0, 0, 0)" stroke="rgb(204, 204, 204)" stroke-width="1px"></line></g></g><g transform="translate(41, 0)" clip-path="url(#clip_0)"><clipPath id="clip_0"><rect width="815" height="376"></rect></clipPath><g><g><g><line x1="0" y1="0" x2="0" y2="376.921875" fill="rgb(0, 0, 0)" stroke="rgb(66, 66, 66)" stroke-width="1px" opacity="0.25"></line><line x1="101.916015625" y1="0" x2="101.916015625" y2="376.921875" fill="rgb(0, 0, 0)" stroke="rgb(66, 66, 66)" stroke-width="1px" opacity="0.25"></line><line x1="203.83203125" y1="0" x2="203.83203125" y2="376.921875" fill="rgb(0, 0, 0)" stroke="rgb(66, 66, 66)" stroke-width="1px" opacity="0.25"></line><line x1="305.748046875" y1="0" x2="305.748046875" y2="376.921875" fill="rgb(0, 0, 0)" stroke="rgb(66, 66, 66)" stroke-width="1px" opacity="0.25"></line><line x1="407.6640625" y1="0" x2="407.6640625" y2="376.921875" fill="rgb(0, 0, 0)" stroke="rgb(66, 66, 66)" stroke-width="1px" opacity="0.25"></line><line x1="509.580078125" y1="0" x2="509.580078125" y2="376.921875" fill="rgb(0, 0, 0)" stroke="rgb(66, 66, 66)" stroke-width="1px" opacity="0.25"></line><line x1="611.49609375" y1="0" x2="611.49609375" y2="376.921875" fill="rgb(0, 0, 0)" stroke="rgb(66, 66, 66)" stroke-width="1px" opacity="0.25"></line><line x1="713.412109375" y1="0" x2="713.412109375" y2="376.921875" fill="rgb(0, 0, 0)" stroke="rgb(66, 66, 66)" stroke-width="1px" opacity="0.25"></line><line x1="815.328125" y1="0" x2="815.328125" y2="376.921875" fill="rgb(0, 0, 0)" stroke="rgb(66, 66, 66)" stroke-width="1px" opacity="0.25"></line></g><g><line x1="0" y1="376.921875" x2="815.328125" y2="376.921875" fill="rgb(0, 0, 0)" stroke="rgb(66, 66, 66)" stroke-width="1px" opacity="0.25"></line><line x1="0" y1="345.51171875" x2="815.328125" y2="345.51171875" fill="rgb(0, 0, 0)" stroke="rgb(66, 66, 66)" stroke-width="1px" opacity="0.25"></line><line x1="0" y1="314.1015625" x2="815.328125" y2="314.1015625" fill="rgb(0, 0, 0)" stroke="rgb(66, 66, 66)" stroke-width="1px" opacity="0.25"></line><line x1="0" y1="282.69140625" x2="815.328125" y2="282.69140625" fill="rgb(0, 0, 0)" stroke="rgb(66, 66, 66)" stroke-width="1px" opacity="0.25"></line><line x1="0" y1="251.28125000000003" x2="815.328125" y2="251.28125000000003" fill="rgb(0, 0, 0)" stroke="rgb(66, 66, 66)" stroke-width="1px" opacity="0.25"></line><line x1="0" y1="219.87109374999997" x2="815.328125" y2="219.87109374999997" fill="rgb(0, 0, 0)" stroke="rgb(66, 66, 66)" stroke-width="1px" opacity="0.25"></line><line x1="0" y1="188.46093749999997" x2="815.328125" y2="188.46093749999997" fill="rgb(0, 0, 0)" stroke="rgb(66, 66, 66)" stroke-width="1px" opacity="0.25"></line><line x1="0" y1="157.05078125" x2="815.328125" y2="157.05078125" fill="rgb(0, 0, 0)" stroke="rgb(66, 66, 66)" stroke-width="1px" opacity="0.25"></line><line x1="0" y1="125.64062499999997" x2="815.328125" y2="125.64062499999997" fill="rgb(0, 0, 0)" stroke="rgb(66, 66, 66)" stroke-width="1px" opacity="0.25"></line><line x1="0" y1="94.23046875" x2="815.328125" y2="94.23046875" fill="rgb(0, 0, 0)" stroke="rgb(66, 66, 66)" stroke-width="1px" opacity="0.25"></line><line x1="0" y1="62.820312499999986" x2="815.328125" y2="62.820312499999986" fill="rgb(0, 0, 0)" stroke="rgb(66, 66, 66)" stroke-width="1px" opacity="0.25"></line><line x1="0" y1="31.410156250000014" x2="815.328125" y2="31.410156250000014" fill="rgb(0, 0, 0)" stroke="rgb(66, 66, 66)" stroke-width="1px" opacity="0.25"></line><line x1="0" y1="0" x2="815.328125" y2="0" fill="rgb(0, 0, 0)" stroke="rgb(66, 66, 66)" stroke-width="1px" opacity="0.25"></line></g></g></g><g><g><line x1="0" y1="471.15234375" x2="815.328125" y2="471.15234375" fill="rgb(0, 0, 0)" stroke="rgb(153, 153, 153)" stroke-width="1.5px"></line></g></g><g><g><line x1="101.916015625" y1="0" x2="101.916015625" y2="376.921875" fill="rgb(0, 0, 0)" stroke="rgb(153, 153, 153)" stroke-width="1.5px"></line></g></g><g><g><g><g><g><path stroke="rgb(0, 153, 136)" stroke-width="2px" d="M101.916015625,42.168972608633354L107.01181640625,39.10377436201095L112.10761718750001,39.30612862015116L117.20341796874999,39.62858328392039L122.29921875,40.78136373193971L127.39501953125,42.15591508044739L132.4908203125,43.65260611345208L137.58662109375,45.01148690224616L142.682421875,46.28827623671728L147.77822265625,47.291397392818205L152.8740234375,48.00271581224874L157.96982421875,48.996783396514026L163.065625,50.1050835923282L168.16142578125,51.53847614549321L173.2572265625,53.16495774375828L178.35302734375,54.44370772516756L183.448828125,55.753574400534475L188.54462890625,56.981054746104824L193.6404296875,57.67107492833771L198.73623046875,58.54965012725447L203.83203125,59.46790647739621L208.92783203124998,60.54079121829642L214.0236328125,61.76882102597684L219.11943359375,63.14600001803217L224.21523437500002,64.8707628620292L229.31103515625,65.96958656838315L234.40683593749998,66.9309017869906L239.50263671875,68.03051123683892L244.5984375,69.65896353881591L249.69423828125002,71.63550028768701L254.7900390625,73.4377924165922L259.88583984375,74.75524338198676L264.981640625,76.27218402670842L270.07744140625,77.35942770524773L275.1732421875,78.54287710277545L280.26904296875,80.05398995453561L285.36484375,81.3630889021376L290.46064453125,82.58367545837511L295.5564453125,84.09014101064172L300.65224609375,85.3569558386956L305.748046875,86.19988545097692L310.84384765625,87.25331156717442L315.9396484375,88.46447342045822L321.03544921875,90.19592313108168L326.13125,91.9533399420558L331.22705078125,93.76845382664963L336.3228515625,96.80508029220067L341.41865234375,99.64310182753653L346.514453125,103.68544981186142L351.61025390625,108.22420301287292L356.7060546875,111.92969630510768L361.80185546875,115.67241773033429L366.89765625,120.13683680460207L371.99345703125,125.98101909468402L377.0892578125,130.252730458291L382.18505859375,132.92659099582636L387.280859375,135.83552503807198L392.37666015625,142.02762414983198L397.4724609375,145.8264282772472L402.56826171875,149.3029395858665L407.6640625,155.93007080321598L412.75986328125,160.30404038952355L417.85566406249995,164.35965240788641L422.95146484375005,172.59631060908555L428.047265625,176.09285409882852L433.14306640625,180.94433910778284L438.2388671875,185.72682221759035L443.33466796874995,190.64548526814534L448.43046875000005,202.46735718241902L453.52626953125,206.19620515583645L458.6220703125,207.22635500556194L463.71787109375,211.23254934020915L468.81367187499995,216.69201898298758L473.90947265625005,222.65342645200107L479.0052734375,229.86263640043592L484.10107421875,235.86539856049396L489.196875,251.83469853950572L494.29267578124995,252.4464831517817L499.38847656250005,254.2584811365862L504.48427734375,256.9557718530675L509.580078125,262.1336011356714L514.67587890625,270.77688482502714L519.7716796875,277.0547319272883L524.86748046875,287.32561965609204L529.96328125,294.87992425810313L535.05908203125,300.96630589973785L540.1548828125,305.89139714613174L550.346484375,269.0152919325582L555.44228515625,251.14446040348568L560.5380859375,240.12884374212538L565.63388671875,242.06002060958036L570.7296875,255.56407536015385L575.82548828125,273.5045285128532L580.9212890625,297.4945656709285L586.01708984375,310.3804368513211L591.112890625,321.4196234170279L596.20869140625,328.71754730568784L606.40029296875,301.07392763149863L611.49609375,289.46838353512214L616.59189453125,293.94866106882705L621.6876953125,305.6059152759054L626.78349609375,324.8521603896507L631.879296875,337.4437364314445L642.0708984375,321.96267980520116L647.16669921875,305.1541427228403L652.2625,314.717861884299L657.35830078125,333.6873291903328L667.54990234375,317.33662691648107L672.645703125,322.58232978394807L677.74150390625,339.84382282097965L682.8373046875,350.71894491329687L693.02890625,339.52964827607883L698.12470703125,352.99246148692555L703.2205078125,360.8949310384996L713.412109375,342.50678223593127L718.50791015625,345.2443497858269L723.6037109375,357.114356343948L733.7953125,341.5360306775216L738.89111328125,347.81836454648635L743.9869140625,360.7033215615011L754.178515625,346.9361525636938L759.27431640625,361.76560777022473" style="fill: none;" fill="none"></path></g></g></g></g><g opacity="0.2"><g><g><g><path stroke="rgb(0, 153, 136)" stroke-width="2px" d="M101.916015625,42.168972608633354L107.01181640625,37.26465541403739L112.10761718750001,39.5003887079656L117.20341796874999,40.00778996851294L122.29921875,42.28643388487397L127.39501953125,44.05741443391889L132.4908203125,45.792898237705245L137.58662109375,46.99274813756347L142.682421875,48.17129250150175L147.77822265625,48.78091540187599L152.8740234375,49.063241835683584L157.96982421875,50.48247510101645L163.065625,51.76391509361565L168.16142578125,53.685756810009494L173.2572265625,55.60276827309279L178.35302734375,56.360930823721006L183.448828125,57.7178201219067L188.54462890625,58.821963607333586L193.6404296875,58.70600008405745L198.73623046875,59.867432620376334L203.83203125,60.84524064324796L208.92783203124998,62.15008302591741L214.0236328125,63.61084149219096L219.11943359375,65.21175219211729L224.21523437500002,67.45789486914872L229.31103515625,67.61781744193286L234.40683593749998,68.37287215515973L239.50263671875,69.67992372345178L244.5984375,72.10164049174637L249.69423828125002,74.60030431859197L254.7900390625,76.14123001229017L259.88583984375,76.73141956795006L264.981640625,78.54759481269865L270.07744140625,78.99029314517973L275.1732421875,80.31805114820598L280.26904296875,82.3206591932103L285.36484375,83.32673730328678L290.46064453125,84.41455528140067L295.5564453125,86.34983933065088L300.65224609375,87.25717807654291L305.748046875,87.4642798677087L310.84384765625,88.83345074020325L315.9396484375,90.28121619950981L321.03544921875,92.79309769626707L326.13125,94.58946515806021L331.22705078125,96.49112465325744L336.3228515625,101.36001999024303L341.41865234375,103.90013413038103L346.514453125,109.74897178821266L351.61025390625,115.03233281429858L356.7060546875,117.48793624341488L361.80185546875,121.28649986814709L366.89765625,126.83346541598439L371.99345703125,134.7472925297916L377.0892578125,136.6602975036949L382.18505859375,136.93738180212677L387.280859375,140.1989261014387L392.37666015625,151.31577281747013L397.4724609375,151.5246344683692L402.56826171875,154.5177065487951L407.6640625,165.8707676292397L412.75986328125,166.86499476898462L417.85566406249995,170.44307043543085L422.95146484375005,184.95129791088402L428.047265625,181.33766933344305L433.14306640625,188.22156662121415L438.2388671875,192.90054688230157L443.33466796874995,198.02347984397784L448.43046875000005,220.20016505382955L453.52626953125,211.78947711596265L458.6220703125,208.7715797801502L463.71787109375,217.24184084217995L468.81367187499995,224.88122344715518L473.90947265625005,231.59553765552118L479.0052734375,240.67645132308826L484.10107421875,244.8695418005809L489.196875,275.78864850802347L494.29267578124995,253.36416007019577L499.38847656250005,256.97647811379284L504.48427734375,261.00170792778954L509.580078125,269.9003450595774L514.67587890625,283.74181035906076L519.7716796875,286.47150258067995L524.86748046875,302.7319512492977L529.96328125,306.2113811611198L535.05908203125,310.09587836219L540.1548828125,313.2790340157226L550.346484375,213.7011341121979L555.44228515625,224.33821310987693L560.5380859375,223.6054187500849L565.63388671875,244.95678591076285L570.7296875,275.82015748601407L575.82548828125,300.4152082419023L580.9212890625,333.47962140804157L586.01708984375,329.70924362191L591.112890625,337.978403265588L596.20869140625,339.66443313867785L606.40029296875,259.6084981202148L611.49609375,272.0600673905574L616.59189453125,300.66907736938447L621.6876953125,323.09179658652283L626.78349609375,353.7215280602686L631.879296875,356.33110049413517L642.0708984375,298.7410948658362L647.16669921875,279.94133709929883L652.2625,329.06344062648714L657.35830078125,362.14153014938347L667.54990234375,292.81057350570336L672.645703125,330.4508840851486L677.74150390625,365.7360623765271L682.8373046875,367.0316280517727L693.02890625,322.7457033202518L698.12470703125,373.18668130319566L703.2205078125,372.74863536586054L713.412109375,314.92455903207883L718.50791015625,349.35070111067034L723.6037109375,374.9193661811296L733.7953125,318.16854217788205L738.89111328125,357.2418653499335L743.9869140625,380.0307570840232L754.178515625,326.2853990669828L759.27431640625,384.0097905800212" style="fill: none;" fill="none"></path></g></g></g></g></g></g><g transform="translate(41, 376)" clip-path="url(#clip_1)"><clipPath id="clip_1"><rect width="815" height="23"></rect></clipPath><g><g><line x1="0" y1="0" x2="0" y2="5" style="visibility: inherit;" fill="rgb(0, 0, 0)" stroke="rgb(204, 204, 204)" stroke-width="1px"></line><line x1="101.916015625" y1="0" x2="101.916015625" y2="5" style="visibility: inherit;" fill="rgb(0, 0, 0)" stroke="rgb(204, 204, 204)" stroke-width="1px"></line><line x1="203.83203125" y1="0" x2="203.83203125" y2="5" style="visibility: inherit;" fill="rgb(0, 0, 0)" stroke="rgb(204, 204, 204)" stroke-width="1px"></line><line x1="305.748046875" y1="0" x2="305.748046875" y2="5" style="visibility: inherit;" fill="rgb(0, 0, 0)" stroke="rgb(204, 204, 204)" stroke-width="1px"></line><line x1="407.6640625" y1="0" x2="407.6640625" y2="5" style="visibility: inherit;" fill="rgb(0, 0, 0)" stroke="rgb(204, 204, 204)" stroke-width="1px"></line><line x1="509.580078125" y1="0" x2="509.580078125" y2="5" style="visibility: inherit;" fill="rgb(0, 0, 0)" stroke="rgb(204, 204, 204)" stroke-width="1px"></line><line x1="611.49609375" y1="0" x2="611.49609375" y2="5" style="visibility: inherit;" fill="rgb(0, 0, 0)" stroke="rgb(204, 204, 204)" stroke-width="1px"></line><line x1="713.412109375" y1="0" x2="713.412109375" y2="5" style="visibility: inherit;" fill="rgb(0, 0, 0)" stroke="rgb(204, 204, 204)" stroke-width="1px"></line><line x1="815.328125" y1="0" x2="815.328125" y2="5" style="visibility: inherit;" fill="rgb(0, 0, 0)" stroke="rgb(204, 204, 204)" stroke-width="1px"></line></g><g transform="translate(0, 8)"><text x="0" y="0" dx="0em" dy="0.95em" style="text-anchor: middle; visibility: hidden; font-family: Roboto, sans-serif; font-size: 12px; font-weight: 200;" fill="rgb(33, 33, 33)" stroke="none" stroke-width="1px">-20</text><text x="101.916015625" y="0" dx="0em" dy="0.95em" style="text-anchor: middle; visibility: inherit; font-family: Roboto, sans-serif; font-size: 12px; font-weight: 200;" fill="rgb(33, 33, 33)" stroke="none" stroke-width="1px">0</text><text x="203.83203125" y="0" dx="0em" dy="0.95em" style="text-anchor: middle; visibility: inherit; font-family: Roboto, sans-serif; font-size: 12px; font-weight: 200;" fill="rgb(33, 33, 33)" stroke="none" stroke-width="1px">20</text><text x="305.748046875" y="0" dx="0em" dy="0.95em" style="text-anchor: middle; visibility: inherit; font-family: Roboto, sans-serif; font-size: 12px; font-weight: 200;" fill="rgb(33, 33, 33)" stroke="none" stroke-width="1px">40</text><text x="407.6640625" y="0" dx="0em" dy="0.95em" style="text-anchor: middle; visibility: inherit; font-family: Roboto, sans-serif; font-size: 12px; font-weight: 200;" fill="rgb(33, 33, 33)" stroke="none" stroke-width="1px">60</text><text x="509.580078125" y="0" dx="0em" dy="0.95em" style="text-anchor: middle; visibility: inherit; font-family: Roboto, sans-serif; font-size: 12px; font-weight: 200;" fill="rgb(33, 33, 33)" stroke="none" stroke-width="1px">80</text><text x="611.49609375" y="0" dx="0em" dy="0.95em" style="text-anchor: middle; visibility: inherit; font-family: Roboto, sans-serif; font-size: 12px; font-weight: 200;" fill="rgb(33, 33, 33)" stroke="none" stroke-width="1px">100</text><text x="713.412109375" y="0" dx="0em" dy="0.95em" style="text-anchor: middle; visibility: inherit; font-family: Roboto, sans-serif; font-size: 12px; font-weight: 200;" fill="rgb(33, 33, 33)" stroke="none" stroke-width="1px">120</text><text x="815.328125" y="0" dx="0em" dy="0.95em" style="text-anchor: middle; visibility: hidden; font-family: Roboto, sans-serif; font-size: 12px; font-weight: 200;" fill="rgb(33, 33, 33)" stroke="none" stroke-width="1px">140</text></g><line x1="0" y1="0" x2="815.328125" y2="0" fill="rgb(0, 0, 0)" stroke="rgb(204, 204, 204)" stroke-width="1px"></line></g></g></g></g></svg>