<svg viewBox="0 0 856.5 400" xmlns="http://www.w3.org/2000/svg"><g><g><g><g><g><line x1="51.5625" y1="376.921875" x2="46.5625" y2="376.921875" style="visibility: inherit;" fill="rgb(0, 0, 0)" stroke="rgb(204, 204, 204)" stroke-width="1px"></line><line x1="51.5625" y1="335.04166666666663" x2="46.5625" y2="335.04166666666663" style="visibility: inherit;" fill="rgb(0, 0, 0)" stroke="rgb(204, 204, 204)" stroke-width="1px"></line><line x1="51.5625" y1="293.1614583333333" x2="46.5625" y2="293.1614583333333" style="visibility: inherit;" fill="rgb(0, 0, 0)" stroke="rgb(204, 204, 204)" stroke-width="1px"></line><line x1="51.5625" y1="251.28125" x2="46.5625" y2="251.28125" style="visibility: inherit;" fill="rgb(0, 0, 0)" stroke="rgb(204, 204, 204)" stroke-width="1px"></line><line x1="51.5625" y1="209.40104166666669" x2="46.5625" y2="209.40104166666669" style="visibility: inherit;" fill="rgb(0, 0, 0)" stroke="rgb(204, 204, 204)" stroke-width="1px"></line><line x1="51.5625" y1="167.52083333333331" x2="46.5625" y2="167.52083333333331" style="visibility: inherit;" fill="rgb(0, 0, 0)" stroke="rgb(204, 204, 204)" stroke-width="1px"></line><line x1="51.5625" y1="125.64062500000001" x2="46.5625" y2="125.64062500000001" style="visibility: inherit;" fill="rgb(0, 0, 0)" stroke="rgb(204, 204, 204)" stroke-width="1px"></line><line x1="51.5625" y1="83.7604166666667" x2="46.5625" y2="83.7604166666667" style="visibility: inherit;" fill="rgb(0, 0, 0)" stroke="rgb(204, 204, 204)" stroke-width="1px"></line><line x1="51.5625" y1="41.88020833333335" x2="46.5625" y2="41.88020833333335" style="visibility: inherit;" fill="rgb(0, 0, 0)" stroke="rgb(204, 204, 204)" stroke-width="1px"></line><line x1="51.5625" y1="0" x2="46.5625" y2="0" style="visibility: inherit;" fill="rgb(0, 0, 0)" stroke="rgb(204, 204, 204)" stroke-width="1px"></line></g><g transform="translate(41.5625, 0)"><text x="0" y="376.921875" dx="0em" dy="0.3em" style="text-anchor: end; visibility: hidden; font-family: Roboto, sans-serif; font-size: 12px; font-weight: 200;" fill="rgb(33, 33, 33)" stroke="none" stroke-width="1px">-0.1</text><text x="0" y="335.04166666666663" dx="0em" dy="0.3em" style="text-anchor: end; visibility: inherit; font-family: Roboto, sans-serif; font-size: 12px; font-weight: 200;" fill="rgb(33, 33, 33)" stroke="none" stroke-width="1px">0</text><text x="0" y="293.1614583333333" dx="0em" dy="0.3em" style="text-anchor: end; visibility: inherit; font-family: Roboto, sans-serif; font-size: 12px; font-weight: 200;" fill="rgb(33, 33, 33)" stroke="none" stroke-width="1px">0.1</text><text x="0" y="251.28125" dx="0em" dy="0.3em" style="text-anchor: end; visibility: inherit; font-family: Roboto, sans-serif; font-size: 12px; font-weight: 200;" fill="rgb(33, 33, 33)" stroke="none" stroke-width="1px">0.2</text><text x="0" y="209.40104166666669" dx="0em" dy="0.3em" style="text-anchor: end; visibility: inherit; font-family: Roboto, sans-serif; font-size: 12px; font-weight: 200;" fill="rgb(33, 33, 33)" stroke="none" stroke-width="1px">0.3</text><text x="0" y="167.52083333333331" dx="0em" dy="0.3em" style="text-anchor: end; visibility: inherit; font-family: Roboto, sans-serif; font-size: 12px; font-weight: 200;" fill="rgb(33, 33, 33)" stroke="none" stroke-width="1px">0.4</text><text x="0" y="125.64062500000001" dx="0em" dy="0.3em" style="text-anchor: end; visibility: inherit; font-family: Roboto, sans-serif; font-size: 12px; font-weight: 200;" fill="rgb(33, 33, 33)" stroke="none" stroke-width="1px">0.5</text><text x="0" y="83.7604166666667" dx="0em" dy="0.3em" style="text-anchor: end; visibility: inherit; font-family: Roboto, sans-serif; font-size: 12px; font-weight: 200;" fill="rgb(33, 33, 33)" stroke="none" stroke-width="1px">0.6</text><text x="0" y="41.88020833333335" dx="0em" dy="0.3em" style="text-anchor: end; visibility: inherit; font-family: Roboto, sans-serif; font-size: 12px; font-weight: 200;" fill="rgb(33, 33, 33)" stroke="none" stroke-width="1px">0.7</text><text x="0" y="0" dx="0em" dy="0.3em" style="text-anchor: end; visibility: hidden; font-family: Roboto, sans-serif; font-size: 12px; font-weight: 200;" fill="rgb(33, 33, 33)" stroke="none" stroke-width="1px">0.8</text></g><line x1="51.5625" y1="0" x2="51.5625" y2="376.921875" fill="rgb(0, 0, 0)" stroke="rgb(204, 204, 204)" stroke-width="1px"></line></g></g><g transform="translate(51, 0)" clip-path="url(#clip_0)"><clipPath id="clip_0"><rect width="804" height="376"></rect></clipPath><g><g><g><line x1="0" y1="0" x2="0" y2="376.921875" fill="rgb(0, 0, 0)" stroke="rgb(66, 66, 66)" stroke-width="1px" opacity="0.25"></line><line x1="100.6171875" y1="0" x2="100.6171875" y2="376.921875" fill="rgb(0, 0, 0)" stroke="rgb(66, 66, 66)" stroke-width="1px" opacity="0.25"></line><line x1="201.234375" y1="0" x2="201.234375" y2="376.921875" fill="rgb(0, 0, 0)" stroke="rgb(66, 66, 66)" stroke-width="1px" opacity="0.25"></line><line x1="301.8515625" y1="0" x2="301.8515625" y2="376.921875" fill="rgb(0, 0, 0)" stroke="rgb(66, 66, 66)" stroke-width="1px" opacity="0.25"></line><line x1="402.46875" y1="0" x2="402.46875" y2="376.921875" fill="rgb(0, 0, 0)" stroke="rgb(66, 66, 66)" stroke-width="1px" opacity="0.25"></line><line x1="503.0859375" y1="0" x2="503.0859375" y2="376.921875" fill="rgb(0, 0, 0)" stroke="rgb(66, 66, 66)" stroke-width="1px" opacity="0.25"></line><line x1="603.703125" y1="0" x2="603.703125" y2="376.921875" fill="rgb(0, 0, 0)" stroke="rgb(66, 66, 66)" stroke-width="1px" opacity="0.25"></line><line x1="704.3203125" y1="0" x2="704.3203125" y2="376.921875" fill="rgb(0, 0, 0)" stroke="rgb(66, 66, 66)" stroke-width="1px" opacity="0.25"></line><line x1="804.9375" y1="0" x2="804.9375" y2="376.921875" fill="rgb(0, 0, 0)" stroke="rgb(66, 66, 66)" stroke-width="1px" opacity="0.25"></line></g><g><line x1="0" y1="376.921875" x2="804.9375" y2="376.921875" fill="rgb(0, 0, 0)" stroke="rgb(66, 66, 66)" stroke-width="1px" opacity="0.25"></line><line x1="0" y1="335.04166666666663" x2="804.9375" y2="335.04166666666663" fill="rgb(0, 0, 0)" stroke="rgb(66, 66, 66)" stroke-width="1px" opacity="0.25"></line><line x1="0" y1="293.1614583333333" x2="804.9375" y2="293.1614583333333" fill="rgb(0, 0, 0)" stroke="rgb(66, 66, 66)" stroke-width="1px" opacity="0.25"></line><line x1="0" y1="251.28125" x2="804.9375" y2="251.28125" fill="rgb(0, 0, 0)" stroke="rgb(66, 66, 66)" stroke-width="1px" opacity="0.25"></line><line x1="0" y1="209.40104166666669" x2="804.9375" y2="209.40104166666669" fill="rgb(0, 0, 0)" stroke="rgb(66, 66, 66)" stroke-width="1px" opacity="0.25"></line><line x1="0" y1="167.52083333333331" x2="804.9375" y2="167.52083333333331" fill="rgb(0, 0, 0)" stroke="rgb(66, 66, 66)" stroke-width="1px" opacity="0.25"></line><line x1="0" y1="125.64062500000001" x2="804.9375" y2="125.64062500000001" fill="rgb(0, 0, 0)" stroke="rgb(66, 66, 66)" stroke-width="1px" opacity="0.25"></line><line x1="0" y1="83.7604166666667" x2="804.9375" y2="83.7604166666667" fill="rgb(0, 0, 0)" stroke="rgb(66, 66, 66)" stroke-width="1px" opacity="0.25"></line><line x1="0" y1="41.88020833333335" x2="804.9375" y2="41.88020833333335" fill="rgb(0, 0, 0)" stroke="rgb(66, 66, 66)" stroke-width="1px" opacity="0.25"></line><line x1="0" y1="0" x2="804.9375" y2="0" fill="rgb(0, 0, 0)" stroke="rgb(66, 66, 66)" stroke-width="1px" opacity="0.25"></line></g></g></g><g><g><line x1="0" y1="335.04166666666663" x2="804.9375" y2="335.04166666666663" fill="rgb(0, 0, 0)" stroke="rgb(153, 153, 153)" stroke-width="1.5px"></line></g></g><g><g><line x1="100.6171875" y1="0" x2="100.6171875" y2="376.921875" fill="rgb(0, 0, 0)" stroke="rgb(153, 153, 153)" stroke-width="1.5px"></line></g></g><g><g><g><g><g><path stroke="rgb(0, 153, 136)" stroke-width="2px" d="M100.6171875,330.8536459269429L105.648046875,325.61862000228814L110.67890625000001,330.426296871869L115.70976562499999,328.69804701679095L120.740625,329.63298755728016L125.771484375,326.6307625011473L130.80234375,326.64510919107516L135.833203125,330.0611078411991L140.8640625,332.0736127844022L145.894921875,331.58265742208386L150.92578125,326.2460669432108L155.956640625,323.0565307229308L160.9875,326.1794555611103L166.018359375,328.05059801258443L171.04921875,324.14435563414685L176.080078125,320.1261046629128L181.1109375,319.39137191514624L186.141796875,322.30136876312923L191.17265625,319.0212462556049L196.203515625,323.75437917497885L201.234375,328.2693932172941L206.26523437499998,327.6278775615258L211.29609375,323.89253052085957L216.326953125,325.0017736434203L221.35781250000002,317.29125054822117L226.388671875,317.69058449323205L231.41953124999998,317.9301844242761L236.450390625,319.7491535505822L241.48125,315.8149075720803L246.51210937500002,310.1039435802536L251.54296875,313.3782000655724L256.573828125,317.0179621080179L261.6046875,312.50098533252446L266.635546875,309.7907994052729L271.66640625,311.515104547993L276.697265625,297.47281248410746L281.728125,305.79952102510424L286.758984375,309.1203375025806L291.78984375,301.0615775834443L296.820703125,304.60236344612935L301.8515625,305.05162635144615L306.882421875,303.6459761097418L311.91328125,291.0761263303804L316.944140625,281.859009729066L321.975,286.3799889216173L327.005859375,290.76778442080956L332.03671875,286.6996297844684L337.067578125,289.2843609544469L342.0984375,285.80957570475624L347.129296875,282.04949532297314L352.16015625,281.46865632591596L357.191015625,276.0945277279685L362.221875,284.5965077043614L367.252734375,282.9968637547501L372.28359375,270.3106177535911L377.314453125,279.45095373586594L382.3453125,286.61036330908667L387.376171875,269.12830151848334L392.40703125,265.339896379554L397.437890625,271.44289695986765L402.46875,265.0534469086545L407.499609375,261.2197768779268L412.53046874999995,255.56915889177483L417.56132812500005,252.17878810008372L422.5921875,250.14456562506902L427.623046875,237.19757250867434L432.65390625,231.10458337456774L437.68476562499995,227.44878989410373L442.71562500000005,220.229688606125L447.746484375,222.59906476127813L452.77734375,230.7215223898006L457.808203125,227.21895330324347L462.83906249999995,221.76699837984881L467.86992187500005,226.8718665932278L472.90078125,219.8835346255994L477.931640625,222.3913723729628L482.9625,213.84482462198008L487.99335937499995,208.71689597139044L493.02421875000005,198.93930185309617L498.055078125,199.77358231006008L503.0859375,196.92373212026823L508.116796875,180.1369464072919L513.14765625,181.79133211463704L518.178515625,176.0831316036136L523.209375,155.9061289621681L528.240234375,158.8768029764021L533.27109375,179.08649645550395L543.3328125,162.7337730730028L548.363671875,169.67422137833344L553.39453125,173.83849036153183L558.425390625,172.9866382799905L563.45625,164.0994833673951L568.487109375,158.7671904198379L573.51796875,137.1405205882321L578.548828125,135.8909808169095L583.5796875,118.38917461928459L588.610546875,107.88809090070959L598.672265625,113.31389780469559L603.703125,111.5437517548769L608.733984375,107.13125065352538L613.76484375,104.48374999271445L618.795703125,86.14316226888666L623.8265625,88.54048349047085L633.88828125,91.65408295915157L638.919140625,95.19744937609013L643.95,80.57138189891207L648.980859375,58.39407754174407L659.042578125,65.19019572624488L664.0734375,60.89182297327474L669.104296875,70.03925645662362L674.13515625,58.775639204311474L684.196875,62.06871925232497L689.227734375,42.26685974660134L694.25859375,47.137821385488586L704.3203125,43.359571425900285L709.351171875,46.11824165733785L714.38203125,41.072606868259875L724.44375,41.3956494512932L729.474609375,41.5894750011132L734.50546875,31.654519931604433L744.5671875,34.06959055356978L749.598046875,22.116959070868113" style="fill: none;" fill="none"></path></g></g></g></g><g opacity="0.2"><g><g><g><path stroke="rgb(0, 153, 136)" stroke-width="2px" d="M100.6171875,330.8536459269429L105.648046875,322.47760444749537L110.67890625000001,335.04166666666663L115.70976562499999,326.6656251872191L120.740625,330.8536459269429L125.771484375,322.47760444749537L130.80234375,326.6656251872191L135.833203125,335.04166666666663L140.8640625,335.04166666666663L145.894921875,330.8536459269429L150.92578125,318.2895837077716L155.956640625,318.2895837077716L160.9875,330.8536459269429L166.018359375,330.8536459269429L171.04921875,318.2895837077716L176.080078125,314.1015621879681L181.1109375,318.2895837077716L186.141796875,326.6656251872191L191.17265625,314.1015621879681L196.203515625,330.8536459269429L201.234375,335.04166666666663L206.26523437499998,326.6656251872191L211.29609375,318.2895837077716L216.326953125,326.6656251872191L221.35781250000002,305.7255207085206L226.388671875,318.2895837077716L231.41953124999998,318.2895837077716L236.450390625,322.47760444749537L241.48125,309.91354222832405L246.51210937500002,301.5375007488765L251.54296875,318.2895837077716L256.573828125,322.47760444749537L261.6046875,305.7255207085206L266.635546875,305.7255207085206L271.66640625,314.1015621879681L276.697265625,276.4093747503745L281.728125,318.2895837077716L286.758984375,314.1015621879681L291.78984375,288.9734377496255L296.820703125,309.91354222832405L301.8515625,305.7255207085206L306.882421875,301.5375007488765L311.91328125,272.22135167041176L316.944140625,268.0333348310863L321.975,293.1614577092696L327.005859375,297.3494776689137L332.03671875,280.5973978303373L337.067578125,293.1614577092696L342.0984375,280.5973978303373L347.129296875,276.4093747503745L352.16015625,280.5973978303373L357.191015625,268.0333348310863L362.221875,297.3494776689137L367.252734375,280.5973978303373L372.28359375,251.28124875187254L377.314453125,293.1614577092696L382.3453125,297.3494776689137L387.376171875,242.90520883258435L392.40703125,259.65728867116076L397.437890625,280.5973978303373L402.46875,255.46927183183536L407.499609375,255.46927183183536L412.53046874999995,247.0932319125471L417.56132812500005,247.0932319125471L422.5921875,247.0932319125471L427.623046875,217.77708283408236L432.65390625,221.9650996734078L437.68476562499995,221.9650996734078L442.71562500000005,209.40103667415679L447.746484375,226.15312899400791L452.77734375,242.90520883258435L457.808203125,221.9650996734078L462.83906249999995,213.58906599475696L467.86992187500005,234.52916891329616L472.90078125,209.40103667415679L477.931640625,226.15312899400791L482.9625,201.02500299550596L487.99335937499995,201.02500299550596L493.02421875000005,184.2729106756548L498.055078125,201.02500299550596L503.0859375,192.64895683558035L508.116796875,154.9567678378274L513.14765625,184.2729106756548L518.178515625,167.5208308370784L523.209375,125.64062500000001L528.240234375,163.33281399775296L533.27109375,209.40103667415679L543.3328125,138.204687999251L548.363671875,180.0848938363294L553.39453125,180.0848938363294L558.425390625,171.70886015767852L563.45625,150.76875099850201L568.487109375,150.76875099850201L573.51796875,104.70051584082346L578.548828125,134.01667115992558L583.5796875,92.13646532284717L588.610546875,92.13646532284717L598.672265625,121.45260816067457L603.703125,108.8885326801489L608.733984375,100.51249900149801L613.76484375,100.51249900149801L618.795703125,58.632280683144955L623.8265625,92.13646532284717L633.88828125,96.32448216217261L638.919140625,100.51249900149801L643.95,58.632280683144955L648.980859375,25.128121005992117L659.042578125,75.38437300299607L664.0734375,54.44426384381951L669.104296875,83.76040668164691L674.13515625,41.88021332584323L684.196875,67.00833932434523L689.227734375,12.564070488015833L694.25859375,54.44426384381951L704.3203125,37.69219648651779L709.351171875,50.25624700449407L714.38203125,33.50415468464296L724.44375,41.88021332584323L729.474609375,41.88021332584323L734.50546875,16.752087327341275L744.5671875,37.69219648651779L749.598046875,4.188011846815565" style="fill: none;" fill="none"></path></g></g></g></g></g><g><g opacity="0.003059"><span fill="rgb(0, 0, 0)" stroke="none" stroke-width="1px">Alt + Scroll to Zoom</span></g></g></g><g transform="translate(51, 376)" clip-path="url(#clip_1)"><clipPath id="clip_1"><rect width="804" height="23"></rect></clipPath><g><g><line x1="0" y1="0" x2="0" y2="5" style="visibility: inherit;" fill="rgb(0, 0, 0)" stroke="rgb(204, 204, 204)" stroke-width="1px"></line><line x1="100.6171875" y1="0" x2="100.6171875" y2="5" style="visibility: inherit;" fill="rgb(0, 0, 0)" stroke="rgb(204, 204, 204)" stroke-width="1px"></line><line x1="201.234375" y1="0" x2="201.234375" y2="5" style="visibility: inherit;" fill="rgb(0, 0, 0)" stroke="rgb(204, 204, 204)" stroke-width="1px"></line><line x1="301.8515625" y1="0" x2="301.8515625" y2="5" style="visibility: inherit;" fill="rgb(0, 0, 0)" stroke="rgb(204, 204, 204)" stroke-width="1px"></line><line x1="402.46875" y1="0" x2="402.46875" y2="5" style="visibility: inherit;" fill="rgb(0, 0, 0)" stroke="rgb(204, 204, 204)" stroke-width="1px"></line><line x1="503.0859375" y1="0" x2="503.0859375" y2="5" style="visibility: inherit;" fill="rgb(0, 0, 0)" stroke="rgb(204, 204, 204)" stroke-width="1px"></line><line x1="603.703125" y1="0" x2="603.703125" y2="5" style="visibility: inherit;" fill="rgb(0, 0, 0)" stroke="rgb(204, 204, 204)" stroke-width="1px"></line><line x1="704.3203125" y1="0" x2="704.3203125" y2="5" style="visibility: inherit;" fill="rgb(0, 0, 0)" stroke="rgb(204, 204, 204)" stroke-width="1px"></line><line x1="804.9375" y1="0" x2="804.9375" y2="5" style="visibility: inherit;" fill="rgb(0, 0, 0)" stroke="rgb(204, 204, 204)" stroke-width="1px"></line></g><g transform="translate(0, 8)"><text x="0" y="0" dx="0em" dy="0.95em" style="text-anchor: middle; visibility: hidden; font-family: Roboto, sans-serif; font-size: 12px; font-weight: 200;" fill="rgb(33, 33, 33)" stroke="none" stroke-width="1px">-20</text><text x="100.6171875" y="0" dx="0em" dy="0.95em" style="text-anchor: middle; visibility: inherit; font-family: Roboto, sans-serif; font-size: 12px; font-weight: 200;" fill="rgb(33, 33, 33)" stroke="none" stroke-width="1px">0</text><text x="201.234375" y="0" dx="0em" dy="0.95em" style="text-anchor: middle; visibility: inherit; font-family: Roboto, sans-serif; font-size: 12px; font-weight: 200;" fill="rgb(33, 33, 33)" stroke="none" stroke-width="1px">20</text><text x="301.8515625" y="0" dx="0em" dy="0.95em" style="text-anchor: middle; visibility: inherit; font-family: Roboto, sans-serif; font-size: 12px; font-weight: 200;" fill="rgb(33, 33, 33)" stroke="none" stroke-width="1px">40</text><text x="402.46875" y="0" dx="0em" dy="0.95em" style="text-anchor: middle; visibility: inherit; font-family: Roboto, sans-serif; font-size: 12px; font-weight: 200;" fill="rgb(33, 33, 33)" stroke="none" stroke-width="1px">60</text><text x="503.0859375" y="0" dx="0em" dy="0.95em" style="text-anchor: middle; visibility: inherit; font-family: Roboto, sans-serif; font-size: 12px; font-weight: 200;" fill="rgb(33, 33, 33)" stroke="none" stroke-width="1px">80</text><text x="603.703125" y="0" dx="0em" dy="0.95em" style="text-anchor: middle; visibility: inherit; font-family: Roboto, sans-serif; font-size: 12px; font-weight: 200;" fill="rgb(33, 33, 33)" stroke="none" stroke-width="1px">100</text><text x="704.3203125" y="0" dx="0em" dy="0.95em" style="text-anchor: middle; visibility: inherit; font-family: Roboto, sans-serif; font-size: 12px; font-weight: 200;" fill="rgb(33, 33, 33)" stroke="none" stroke-width="1px">120</text><text x="804.9375" y="0" dx="0em" dy="0.95em" style="text-anchor: middle; visibility: hidden; font-family: Roboto, sans-serif; font-size: 12px; font-weight: 200;" fill="rgb(33, 33, 33)" stroke="none" stroke-width="1px">140</text></g><line x1="0" y1="0" x2="804.9375" y2="0" fill="rgb(0, 0, 0)" stroke="rgb(204, 204, 204)" stroke-width="1px"></line></g></g></g></g></svg>