<svg viewBox="0 0 856.5 400" xmlns="http://www.w3.org/2000/svg"><g><g><g><g><g><line x1="61.953125" y1="376.921875" x2="56.953125" y2="376.921875" style="visibility: inherit;" fill="rgb(0, 0, 0)" stroke="rgb(204, 204, 204)" stroke-width="1px"></line><line x1="61.953125" y1="335.04166666666663" x2="56.953125" y2="335.04166666666663" style="visibility: inherit;" fill="rgb(0, 0, 0)" stroke="rgb(204, 204, 204)" stroke-width="1px"></line><line x1="61.953125" y1="293.1614583333333" x2="56.953125" y2="293.1614583333333" style="visibility: inherit;" fill="rgb(0, 0, 0)" stroke="rgb(204, 204, 204)" stroke-width="1px"></line><line x1="61.953125" y1="251.28125" x2="56.953125" y2="251.28125" style="visibility: inherit;" fill="rgb(0, 0, 0)" stroke="rgb(204, 204, 204)" stroke-width="1px"></line><line x1="61.953125" y1="209.40104166666669" x2="56.953125" y2="209.40104166666669" style="visibility: inherit;" fill="rgb(0, 0, 0)" stroke="rgb(204, 204, 204)" stroke-width="1px"></line><line x1="61.953125" y1="167.52083333333331" x2="56.953125" y2="167.52083333333331" style="visibility: inherit;" fill="rgb(0, 0, 0)" stroke="rgb(204, 204, 204)" stroke-width="1px"></line><line x1="61.953125" y1="125.64062500000001" x2="56.953125" y2="125.64062500000001" style="visibility: inherit;" fill="rgb(0, 0, 0)" stroke="rgb(204, 204, 204)" stroke-width="1px"></line><line x1="61.953125" y1="83.7604166666667" x2="56.953125" y2="83.7604166666667" style="visibility: inherit;" fill="rgb(0, 0, 0)" stroke="rgb(204, 204, 204)" stroke-width="1px"></line><line x1="61.953125" y1="41.88020833333335" x2="56.953125" y2="41.88020833333335" style="visibility: inherit;" fill="rgb(0, 0, 0)" stroke="rgb(204, 204, 204)" stroke-width="1px"></line><line x1="61.953125" y1="0" x2="56.953125" y2="0" style="visibility: inherit;" fill="rgb(0, 0, 0)" stroke="rgb(204, 204, 204)" stroke-width="1px"></line></g><g transform="translate(51.953125, 0)"><text x="0" y="376.921875" dx="0em" dy="0.3em" style="text-anchor: end; visibility: hidden; font-family: Roboto, sans-serif; font-size: 12px; font-weight: 200;" fill="rgb(33, 33, 33)" stroke="none" stroke-width="1px">-0.05</text><text x="0" y="335.04166666666663" dx="0em" dy="0.3em" style="text-anchor: end; visibility: inherit; font-family: Roboto, sans-serif; font-size: 12px; font-weight: 200;" fill="rgb(33, 33, 33)" stroke="none" stroke-width="1px">0</text><text x="0" y="293.1614583333333" dx="0em" dy="0.3em" style="text-anchor: end; visibility: inherit; font-family: Roboto, sans-serif; font-size: 12px; font-weight: 200;" fill="rgb(33, 33, 33)" stroke="none" stroke-width="1px">0.05</text><text x="0" y="251.28125" dx="0em" dy="0.3em" style="text-anchor: end; visibility: inherit; font-family: Roboto, sans-serif; font-size: 12px; font-weight: 200;" fill="rgb(33, 33, 33)" stroke="none" stroke-width="1px">0.1</text><text x="0" y="209.40104166666669" dx="0em" dy="0.3em" style="text-anchor: end; visibility: inherit; font-family: Roboto, sans-serif; font-size: 12px; font-weight: 200;" fill="rgb(33, 33, 33)" stroke="none" stroke-width="1px">0.15</text><text x="0" y="167.52083333333331" dx="0em" dy="0.3em" style="text-anchor: end; visibility: inherit; font-family: Roboto, sans-serif; font-size: 12px; font-weight: 200;" fill="rgb(33, 33, 33)" stroke="none" stroke-width="1px">0.2</text><text x="0" y="125.64062500000001" dx="0em" dy="0.3em" style="text-anchor: end; visibility: inherit; font-family: Roboto, sans-serif; font-size: 12px; font-weight: 200;" fill="rgb(33, 33, 33)" stroke="none" stroke-width="1px">0.25</text><text x="0" y="83.7604166666667" dx="0em" dy="0.3em" style="text-anchor: end; visibility: inherit; font-family: Roboto, sans-serif; font-size: 12px; font-weight: 200;" fill="rgb(33, 33, 33)" stroke="none" stroke-width="1px">0.3</text><text x="0" y="41.88020833333335" dx="0em" dy="0.3em" style="text-anchor: end; visibility: inherit; font-family: Roboto, sans-serif; font-size: 12px; font-weight: 200;" fill="rgb(33, 33, 33)" stroke="none" stroke-width="1px">0.35</text><text x="0" y="0" dx="0em" dy="0.3em" style="text-anchor: end; visibility: hidden; font-family: Roboto, sans-serif; font-size: 12px; font-weight: 200;" fill="rgb(33, 33, 33)" stroke="none" stroke-width="1px">0.4</text></g><line x1="61.953125" y1="0" x2="61.953125" y2="376.921875" fill="rgb(0, 0, 0)" stroke="rgb(204, 204, 204)" stroke-width="1px"></line></g></g><g transform="translate(61, 0)" clip-path="url(#clip_0)"><clipPath id="clip_0"><rect width="794" height="376"></rect></clipPath><g><g><g><line x1="0" y1="0" x2="0" y2="376.921875" fill="rgb(0, 0, 0)" stroke="rgb(66, 66, 66)" stroke-width="1px" opacity="0.25"></line><line x1="99.318359375" y1="0" x2="99.318359375" y2="376.921875" fill="rgb(0, 0, 0)" stroke="rgb(66, 66, 66)" stroke-width="1px" opacity="0.25"></line><line x1="198.63671875" y1="0" x2="198.63671875" y2="376.921875" fill="rgb(0, 0, 0)" stroke="rgb(66, 66, 66)" stroke-width="1px" opacity="0.25"></line><line x1="297.955078125" y1="0" x2="297.955078125" y2="376.921875" fill="rgb(0, 0, 0)" stroke="rgb(66, 66, 66)" stroke-width="1px" opacity="0.25"></line><line x1="397.2734375" y1="0" x2="397.2734375" y2="376.921875" fill="rgb(0, 0, 0)" stroke="rgb(66, 66, 66)" stroke-width="1px" opacity="0.25"></line><line x1="496.591796875" y1="0" x2="496.591796875" y2="376.921875" fill="rgb(0, 0, 0)" stroke="rgb(66, 66, 66)" stroke-width="1px" opacity="0.25"></line><line x1="595.91015625" y1="0" x2="595.91015625" y2="376.921875" fill="rgb(0, 0, 0)" stroke="rgb(66, 66, 66)" stroke-width="1px" opacity="0.25"></line><line x1="695.228515625" y1="0" x2="695.228515625" y2="376.921875" fill="rgb(0, 0, 0)" stroke="rgb(66, 66, 66)" stroke-width="1px" opacity="0.25"></line><line x1="794.546875" y1="0" x2="794.546875" y2="376.921875" fill="rgb(0, 0, 0)" stroke="rgb(66, 66, 66)" stroke-width="1px" opacity="0.25"></line></g><g><line x1="0" y1="376.921875" x2="794.546875" y2="376.921875" fill="rgb(0, 0, 0)" stroke="rgb(66, 66, 66)" stroke-width="1px" opacity="0.25"></line><line x1="0" y1="335.04166666666663" x2="794.546875" y2="335.04166666666663" fill="rgb(0, 0, 0)" stroke="rgb(66, 66, 66)" stroke-width="1px" opacity="0.25"></line><line x1="0" y1="293.1614583333333" x2="794.546875" y2="293.1614583333333" fill="rgb(0, 0, 0)" stroke="rgb(66, 66, 66)" stroke-width="1px" opacity="0.25"></line><line x1="0" y1="251.28125" x2="794.546875" y2="251.28125" fill="rgb(0, 0, 0)" stroke="rgb(66, 66, 66)" stroke-width="1px" opacity="0.25"></line><line x1="0" y1="209.40104166666669" x2="794.546875" y2="209.40104166666669" fill="rgb(0, 0, 0)" stroke="rgb(66, 66, 66)" stroke-width="1px" opacity="0.25"></line><line x1="0" y1="167.52083333333331" x2="794.546875" y2="167.52083333333331" fill="rgb(0, 0, 0)" stroke="rgb(66, 66, 66)" stroke-width="1px" opacity="0.25"></line><line x1="0" y1="125.64062500000001" x2="794.546875" y2="125.64062500000001" fill="rgb(0, 0, 0)" stroke="rgb(66, 66, 66)" stroke-width="1px" opacity="0.25"></line><line x1="0" y1="83.7604166666667" x2="794.546875" y2="83.7604166666667" fill="rgb(0, 0, 0)" stroke="rgb(66, 66, 66)" stroke-width="1px" opacity="0.25"></line><line x1="0" y1="41.88020833333335" x2="794.546875" y2="41.88020833333335" fill="rgb(0, 0, 0)" stroke="rgb(66, 66, 66)" stroke-width="1px" opacity="0.25"></line><line x1="0" y1="0" x2="794.546875" y2="0" fill="rgb(0, 0, 0)" stroke="rgb(66, 66, 66)" stroke-width="1px" opacity="0.25"></line></g></g></g><g><g><line x1="0" y1="335.04166666666663" x2="794.546875" y2="335.04166666666663" fill="rgb(0, 0, 0)" stroke="rgb(153, 153, 153)" stroke-width="1.5px"></line></g></g><g><g><line x1="99.318359375" y1="0" x2="99.318359375" y2="376.921875" fill="rgb(0, 0, 0)" stroke="rgb(153, 153, 153)" stroke-width="1.5px"></line></g></g><g><g><g><g><g><path stroke="rgb(0, 153, 136)" stroke-width="2px" d="M99.318359375,331.0354317926103L104.28427734375,328.923041868157L109.25019531250001,332.04478921433537L114.21611328124999,331.2970571059765L119.18203125,331.6544757442445L124.14794921875,330.317969060635L129.1138671875,330.8227299541747L134.07978515625,332.53913362993416L139.045703125,333.5503374493129L144.01162109375,333.45648052234617L148.9775390625,330.19604911171723L153.94345703125,328.05601490870214L158.909375,329.9064357814229L163.87529296875,331.19507006015294L168.8412109375,329.04174960192944L173.80712890625,326.34404805687365L178.773046875,325.0193300718773L183.73896484375,326.53477788076594L188.7048828125,326.73928848531824L193.67080078125,328.45780864005474L198.63671875,331.0914096238743L203.60263671874998,330.0176082994449L208.5685546875,327.2554983814556L213.53447265625,327.8763278994261L218.50039062500002,322.44286208773457L223.46630859375,322.3212327749778L228.43222656249998,323.07159967431L233.39814453125,324.2692921202562L238.3640625,321.10300377928576L243.32998046875002,315.452766779882L248.2958984375,318.4457011334759L253.26181640624998,322.47321172029467L258.227734375,319.5138071524358L263.19365234375,320.45400882731076L268.1595703125,319.83478388433593L273.12548828125,309.6990615028089L278.09140625,316.050374789736L283.05732421875,318.4720736168473L288.0232421875,315.88567343518355L292.98916015625,317.71583316774814L297.955078125,317.8664392464735L302.92099609375,315.6370874695488L307.8869140625,305.4000423403333L312.85283203125,297.1594371503956L317.81875,300.50338058134605L322.78466796875,303.81458153367987L327.7505859375,301.49673886665664L332.71650390625,304.221135747222L337.682421875,300.877420255569L342.64833984375,295.3257850306692L347.6142578125,300.66779331033933L352.58017578125,298.7367328187947L357.54609375,302.53694565578587L362.51201171875,300.8232951081024L367.4779296875,291.2441422914764L372.44384765625,298.05758828957437L377.409765625,300.5937291992088L382.37568359375,287.5972923630759L387.3416015625,289.47244561590975L392.30751953125,293.2152003637398L397.2734375,286.0191108856837L402.23935546875,282.3594125873887L407.20527343749995,276.5790289272467L412.17119140625005,275.76742806691783L417.137109375,272.5325376905035L422.10302734375,262.31531014841977L427.0689453125,253.37225096970855L432.03486328124995,253.84056765249656L437.00078125000005,248.08515140808396L441.96669921875,248.51162352680475L446.9326171875,257.0804376480389L451.89853515625,251.35677649082692L456.86445312499995,247.36365333771877L461.83037109375005,250.55469755401913L466.7962890625,243.14851282765392L471.76220703125,242.85768404286804L476.728125,235.42691564593733L481.69404296874995,229.99842990781278L486.65996093750005,220.79522924082727L491.62587890625,220.19677231062798L496.591796875,215.21561253403237L501.55771484375,201.61990006864835L506.52363281249995,205.0246212318337L511.48955078125005,197.66764119723214L516.45546875,175.90978837572302L521.42138671875,177.88321040794415L526.3873046875,197.0717420284708L536.319140625,184.3025959814942L541.28505859375,187.78276285094162L546.2509765625,191.35009871795558L551.21689453125,186.88507017406195L556.1828125,176.08448759774288L561.14873046875,172.97088202323468L566.1146484375,150.40079717329712L571.08056640625,147.83189356744234L576.046484375,128.6499970180488L581.01240234375,120.94697887685079L590.94423828125,126.02873001835455L595.91015625,122.73030363972015L600.87607421875,115.10672612535969L605.8419921875,111.88757675368402L610.80791015625,95.37409407359647L615.773828125,97.93149285343658L625.7056640625,98.88261725178778L630.67158203125,106.01720424272472L635.6375,88.16331440127605L640.60341796875,64.58277629142032L650.53525390625,72.24974457442778L655.501171875,67.86080166709438L660.46708984375,77.27908518147676L665.4330078125,65.87249625314602L675.36484375,66.57191579171614L680.33076171875,45.44461378705656L685.2966796875,49.462836152824735L695.228515625,45.8895175726789L700.19443359375,48.34016322373812L705.1603515625,42.29790162461679L715.0921875,43.16333725875227L720.05810546875,43.3435672781901L725.0240234375,32.99454386703391L734.955859375,34.73171778399082L739.92177734375,21.45306744875509" style="fill: none;" fill="none"></path></g></g></g></g><g opacity="0.2"><g><g><g><path stroke="rgb(0, 153, 136)" stroke-width="2px" d="M99.318359375,331.0354317926103L104.28427734375,327.65560791348497L109.25019531250001,335.04166666666663L114.21611328124999,330.41772414654645L119.18203125,332.12112151836726L124.14794921875,328.4690991747969L129.1138671875,331.5445461081108L134.07978515625,335.04166666666663L139.045703125,335.04166666666663L144.01162109375,333.31711392426223L148.9775390625,325.3349738687005L153.94345703125,324.85760957580834L158.909375,332.6760251452991L163.87529296875,333.1254969095462L168.8412109375,325.81430006196024L173.80712890625,322.299398367429L178.773046875,323.03281367063755L183.73896484375,328.80756482206436L188.7048828125,327.0460232370145L193.67080078125,331.0354317926103L198.63671875,335.04166666666663L203.60263671874998,328.4069416466906L208.5685546875,323.1123880375138L213.53447265625,328.80756482206436L218.50039062500002,314.29270198894665L223.46630859375,322.1387893245361L228.43222656249998,324.19714810332516L233.39814453125,326.0658289504354L238.3640625,316.3535741844292L243.32998046875002,306.9774144035764L248.2958984375,322.9351016713772L253.26181640624998,328.514476799183L258.227734375,315.0747006539411L263.19365234375,321.8643112722784L268.1595703125,318.9059464964861L273.12548828125,294.49547819187865L278.09140625,325.5773446218615L283.05732421875,322.1046218350336L288.0232421875,312.00607317709364L292.98916015625,320.4610727604789L297.955078125,318.0923483642594L302.92099609375,312.2930598068439L307.8869140625,290.04447465389967L312.85283203125,284.7985293690581L317.81875,305.5192957269028L322.78466796875,308.78138296166435L327.7505859375,298.0199748663387L332.71650390625,308.30773106791696L337.682421875,295.8618470182022L342.64833984375,286.9983321934318L347.6142578125,308.68080572977976L352.58017578125,295.84014208149165L357.54609375,308.23726491125615L362.51201171875,298.25281928658177L367.4779296875,276.87541306655237L372.44384765625,308.27775728671503L377.409765625,304.3979405636589L382.37568359375,268.102637108881L387.3416015625,292.2851754951601L392.30751953125,298.8293324854846L397.2734375,275.2249766686L402.23935546875,276.86986513994634L407.20527343749995,267.90845343703404L412.17119140625005,274.5500267764243L417.137109375,267.6802021258821L422.10302734375,246.98946883529428L427.0689453125,239.95766220164177L432.03486328124995,254.5430426766786L437.00078125000005,239.45202704146507L441.96669921875,249.15133170488602L446.9326171875,269.9336588298902L451.89853515625,242.77128475500894L456.86445312499995,241.3739686080565L461.83037109375005,255.34126387846965L466.7962890625,232.03923573810607L471.76220703125,242.42144086568928L476.728125,224.2807630505413L481.69404296874995,221.85570130062598L486.65996093750005,206.99042824034888L491.62587890625,219.29908691532913L496.591796875,207.74387286913893L501.55771484375,181.22633137057227L506.52363281249995,210.13170297661176L511.48955078125005,186.6321711453299L516.45546875,143.27300914345932L521.42138671875,180.84334345627576L526.3873046875,225.85453945926085L536.319140625,165.14887691102922L541.28505859375,193.00301315511268L546.2509765625,196.70110251847655L551.21689453125,180.1875273582215L556.1828125,159.8836137332643L561.14873046875,168.3004736614724L566.1146484375,116.5456698983908L571.08056640625,143.97853815866017L576.046484375,99.87715219395855L581.01240234375,109.39245166505378L590.94423828125,133.65135673061013L595.91015625,117.78266407176855L600.87607421875,103.67135985381904L605.8419921875,107.05885269617042L610.80791015625,70.60387005346517L615.773828125,101.76759102319679L625.7056640625,100.30930384931466L630.67158203125,116.71908472913007L635.6375,61.38247963910303L640.60341796875,29.21196912663679L650.53525390625,83.75019699893893L655.501171875,61.277387306094184L660.46708984375,91.40651045305037L665.4330078125,48.76261286064985L675.36484375,67.62104509957138L680.33076171875,13.753660780067268L685.2966796875,55.490169701476894L695.228515625,40.529539702460184L700.19443359375,52.01613170032703L705.1603515625,33.23450922593476L715.0921875,44.46149070995552L720.05810546875,43.6139123073469L725.0240234375,17.47100875029965L734.955859375,37.33747865942619L739.92177734375,1.535091945901541" style="fill: none;" fill="none"></path></g></g></g></g></g></g><g transform="translate(61, 376)" clip-path="url(#clip_1)"><clipPath id="clip_1"><rect width="794" height="23"></rect></clipPath><g><g><line x1="0" y1="0" x2="0" y2="5" style="visibility: inherit;" fill="rgb(0, 0, 0)" stroke="rgb(204, 204, 204)" stroke-width="1px"></line><line x1="99.318359375" y1="0" x2="99.318359375" y2="5" style="visibility: inherit;" fill="rgb(0, 0, 0)" stroke="rgb(204, 204, 204)" stroke-width="1px"></line><line x1="198.63671875" y1="0" x2="198.63671875" y2="5" style="visibility: inherit;" fill="rgb(0, 0, 0)" stroke="rgb(204, 204, 204)" stroke-width="1px"></line><line x1="297.955078125" y1="0" x2="297.955078125" y2="5" style="visibility: inherit;" fill="rgb(0, 0, 0)" stroke="rgb(204, 204, 204)" stroke-width="1px"></line><line x1="397.2734375" y1="0" x2="397.2734375" y2="5" style="visibility: inherit;" fill="rgb(0, 0, 0)" stroke="rgb(204, 204, 204)" stroke-width="1px"></line><line x1="496.591796875" y1="0" x2="496.591796875" y2="5" style="visibility: inherit;" fill="rgb(0, 0, 0)" stroke="rgb(204, 204, 204)" stroke-width="1px"></line><line x1="595.91015625" y1="0" x2="595.91015625" y2="5" style="visibility: inherit;" fill="rgb(0, 0, 0)" stroke="rgb(204, 204, 204)" stroke-width="1px"></line><line x1="695.228515625" y1="0" x2="695.228515625" y2="5" style="visibility: inherit;" fill="rgb(0, 0, 0)" stroke="rgb(204, 204, 204)" stroke-width="1px"></line><line x1="794.546875" y1="0" x2="794.546875" y2="5" style="visibility: inherit;" fill="rgb(0, 0, 0)" stroke="rgb(204, 204, 204)" stroke-width="1px"></line></g><g transform="translate(0, 8)"><text x="0" y="0" dx="0em" dy="0.95em" style="text-anchor: middle; visibility: hidden; font-family: Roboto, sans-serif; font-size: 12px; font-weight: 200;" fill="rgb(33, 33, 33)" stroke="none" stroke-width="1px">-20</text><text x="99.318359375" y="0" dx="0em" dy="0.95em" style="text-anchor: middle; visibility: inherit; font-family: Roboto, sans-serif; font-size: 12px; font-weight: 200;" fill="rgb(33, 33, 33)" stroke="none" stroke-width="1px">0</text><text x="198.63671875" y="0" dx="0em" dy="0.95em" style="text-anchor: middle; visibility: inherit; font-family: Roboto, sans-serif; font-size: 12px; font-weight: 200;" fill="rgb(33, 33, 33)" stroke="none" stroke-width="1px">20</text><text x="297.955078125" y="0" dx="0em" dy="0.95em" style="text-anchor: middle; visibility: inherit; font-family: Roboto, sans-serif; font-size: 12px; font-weight: 200;" fill="rgb(33, 33, 33)" stroke="none" stroke-width="1px">40</text><text x="397.2734375" y="0" dx="0em" dy="0.95em" style="text-anchor: middle; visibility: inherit; font-family: Roboto, sans-serif; font-size: 12px; font-weight: 200;" fill="rgb(33, 33, 33)" stroke="none" stroke-width="1px">60</text><text x="496.591796875" y="0" dx="0em" dy="0.95em" style="text-anchor: middle; visibility: inherit; font-family: Roboto, sans-serif; font-size: 12px; font-weight: 200;" fill="rgb(33, 33, 33)" stroke="none" stroke-width="1px">80</text><text x="595.91015625" y="0" dx="0em" dy="0.95em" style="text-anchor: middle; visibility: inherit; font-family: Roboto, sans-serif; font-size: 12px; font-weight: 200;" fill="rgb(33, 33, 33)" stroke="none" stroke-width="1px">100</text><text x="695.228515625" y="0" dx="0em" dy="0.95em" style="text-anchor: middle; visibility: inherit; font-family: Roboto, sans-serif; font-size: 12px; font-weight: 200;" fill="rgb(33, 33, 33)" stroke="none" stroke-width="1px">120</text><text x="794.546875" y="0" dx="0em" dy="0.95em" style="text-anchor: middle; visibility: hidden; font-family: Roboto, sans-serif; font-size: 12px; font-weight: 200;" fill="rgb(33, 33, 33)" stroke="none" stroke-width="1px">140</text></g><line x1="0" y1="0" x2="794.546875" y2="0" fill="rgb(0, 0, 0)" stroke="rgb(204, 204, 204)" stroke-width="1px"></line></g></g></g></g></svg>